HIERARCHY
ROOT Hips
{
 OFFSET 0.000000 0.000000 0.000000
 CHANNELS 6 Xposition Yposition Zposition Yrotation Xrotation Zrotation
 JOINT Chest
 {
  OFFSET 0.000000 0.087911 -0.065546
  CHANNELS 3 Yrotation Xrotation Zrotation
  JOINT Chest2
  {
   OFFSET 0.000000 0.074094 -0.000050
   CHANNELS 3 Yrotation Xrotation Zrotation
   JOINT Chest3
   {
    OFFSET 0.000000 0.105900 0.000026
    CHANNELS 3 Yrotation Xrotation Zrotation
    JOINT Chest4
    {
     OFFSET 0.000000 0.109216 0.000029
     CHANNELS 3 Yrotation Xrotation Zrotation
     JOINT Neck
     {
      OFFSET 0.000000 0.176282 -0.000024
      CHANNELS 3 Yrotation Xrotation Zrotation
      JOINT Head
      {
       OFFSET 0.000000 0.090319 0.000000
       CHANNELS 3 Yrotation Xrotation Zrotation
       End Site
       {
        OFFSET 0.000000 0.131706 0.000000
       }
      }
     }
     JOINT RightCollar
     {
      OFFSET -0.028133 0.110139 -0.000012
      CHANNELS 3 Yrotation Xrotation Zrotation
      JOINT RightShoulder
      {
       OFFSET -0.158561 0.000000 0.000000
       CHANNELS 3 Yrotation Xrotation Zrotation
       JOINT RightElbow
       {
        OFFSET -0.265160 0.000000 0.000000
        CHANNELS 3 Yrotation Xrotation Zrotation
        JOINT RightWrist
        {
         OFFSET -0.239129 0.000000 -0.000016
         CHANNELS 3 Yrotation Xrotation Zrotation
         End Site
         {
          OFFSET -0.175082 0.006533 0.000975
         }
        }
       }
      }
     }
     JOINT LeftCollar
     {
      OFFSET 0.028133 0.110139 -0.000012
      CHANNELS 3 Yrotation Xrotation Zrotation
      JOINT LeftShoulder
      {
       OFFSET 0.158561 0.000000 0.000000
       CHANNELS 3 Yrotation Xrotation Zrotation
       JOINT LeftElbow
       {
        OFFSET 0.265160 0.000000 0.000000
        CHANNELS 3 Yrotation Xrotation Zrotation
        JOINT LeftWrist
        {
         OFFSET 0.239129 0.000000 -0.000016
         CHANNELS 3 Yrotation Xrotation Zrotation
         End Site
         {
          OFFSET 0.175082 0.006533 0.000975
         }
        }
       }
      }
     }
    }
   }
  }
 }
 JOINT RightHip
 {
  OFFSET -0.094771 -0.000069 0.000011
  CHANNELS 3 Yrotation Xrotation Zrotation
  JOINT RightKnee
  {
   OFFSET 0.000000 -0.475024 0.000100
   CHANNELS 3 Yrotation Xrotation Zrotation
   JOINT RightAnkle
   {
    OFFSET 0.000000 -0.411622 0.001356
    CHANNELS 3 Yrotation Xrotation Zrotation
    JOINT RightToe
    {
     OFFSET 0.000000 -0.086895 0.180760
     CHANNELS 3 Yrotation Xrotation Zrotation
     End Site
     {
      OFFSET 0.000000 -0.009624 0.045094
     }
    }
   }
  }
 }
 JOINT LeftHip
 {
  OFFSET 0.094771 -0.000091 0.000014
  CHANNELS 3 Yrotation Xrotation Zrotation
  JOINT LeftKnee
  {
   OFFSET 0.000000 -0.475024 0.000100
   CHANNELS 3 Yrotation Xrotation Zrotation
   JOINT LeftAnkle
   {
    OFFSET 0.000000 -0.411622 0.001356
    CHANNELS 3 Yrotation Xrotation Zrotation
    JOINT LeftToe
    {
     OFFSET 0.000000 -0.086895 0.180760
     CHANNELS 3 Yrotation Xrotation Zrotation
     End Site
     {
      OFFSET 0.000000 -0.009624 0.045094
     }
    }
   }
  }
 }
}
MOTION
Frames: 7
Frame Time: 0.004167
0.142982 0.985459 0.140738 0.479330 10.651840 0.982101 -0.858769 0.919489 -1.381689 -0.271781 -13.081564 -0.660569 -0.189431 -0.132555 -0.503491 -0.078865 9.461595 -0.145659 -0.973245 -0.390274 0.284806 -1.809040 -0.720900 0.534187 -0.551936 -6.678115 10.111130 -1.183528 -4.722521 70.732077 0.179770 -4.143750 0.213110 2.414252 -2.099958 6.192273 0.661893 -6.393191 -5.429416 -4.366081 -2.296872 -73.575369 -2.891335 -4.112837 -0.748152 -0.702661 -1.852035 -6.304655 -0.007526 -4.230123 -4.009047 0.961084 0.169603 -0.046590 -0.381410 -6.593055 3.201305 -0.000000 -0.000000 -0.000000 2.944079 -5.250020 -0.575158 0.688293 -0.039509 -0.134184 0.161674 -5.574131 -1.287925 -0.000000 -0.000000 -0.000000
0.142788 0.985459 0.140670 0.482196 10.636453 0.971952 -0.857639 0.925059 -1.370809 -0.272329 -13.078949 -0.655254 -0.189774 -0.130726 -0.499852 -0.078782 9.462117 -0.144605 -0.976800 -0.391904 0.281607 -1.815633 -0.723956 0.528288 -0.550718 -6.672562 10.091658 -1.188930 -4.733085 70.735490 0.173857 -4.145223 0.214343 2.410112 -2.100090 6.191132 0.662745 -6.384369 -5.441834 -4.369308 -2.295226 -73.577939 -2.895185 -4.110590 -0.748414 -0.707662 -1.850518 -6.311973 -0.015832 -4.220714 -3.995694 0.972703 0.171945 -0.027010 -0.392063 -6.587459 3.186822 -0.000000 -0.000000 -0.000000 2.936370 -5.236629 -0.545867 0.698996 -0.046722 -0.146668 0.152790 -5.572622 -1.290133 0.000000 0.000000 0.000000
0.142592 0.985460 0.140602 0.485190 10.620886 0.961576 -0.856525 0.930688 -1.359730 -0.272905 -13.076305 -0.649840 -0.190135 -0.128878 -0.496149 -0.078701 9.462645 -0.143531 -0.980396 -0.393524 0.278347 -1.822300 -0.726994 0.522274 -0.549494 -6.666960 10.071932 -1.194508 -4.743761 70.738880 0.167736 -4.146790 0.215595 2.405917 -2.100233 6.189959 0.663544 -6.375428 -5.454360 -4.372564 -2.293603 -73.580527 -2.898958 -4.108256 -0.748708 -0.712596 -1.848935 -6.319773 -0.024198 -4.211181 -3.982190 0.984482 0.174372 -0.006996 -0.403012 -6.581841 3.172103 0.000000 -0.000000 -0.000000 2.928554 -5.223059 -0.516097 0.709870 -0.054032 -0.159399 0.143670 -5.571145 -1.292292 0.000000 -0.000000 -0.000000
0.142394 0.985459 0.140533 0.488275 10.605194 0.951043 -0.855423 0.936359 -1.348510 -0.273502 -13.073642 -0.644358 -0.190510 -0.127016 -0.492401 -0.078622 9.463176 -0.142445 -0.984020 -0.395137 0.275042 -1.829019 -0.730020 0.516179 -0.548266 -6.661324 10.052030 -1.200210 -4.754515 70.742254 0.161469 -4.148424 0.216860 2.401684 -2.100383 6.188762 0.664302 -6.366404 -5.466962 -4.375839 -2.291996 -73.583127 -2.902677 -4.105861 -0.749024 -0.717484 -1.847305 -6.327912 -0.032606 -4.201561 -3.968581 0.996372 0.176857 0.013323 -0.414168 -6.576211 3.157218 0.000000 0.000000 -0.000000 2.920662 -5.209362 -0.485992 0.720867 -0.061410 -0.172302 0.134384 -5.569692 -1.294418 -0.000000 0.000000 0.000000
0.142196 0.985459 0.140464 0.491412 10.589429 0.940418 -0.854327 0.942054 -1.337210 -0.274109 -13.070968 -0.638837 -0.190892 -0.125146 -0.488627 -0.078544 9.463710 -0.141351 -0.987660 -0.396746 0.271713 -1.835767 -0.733040 0.510039 -0.547037 -6.655667 10.032026 -1.205985 -4.765313 70.745620 0.155119 -4.150094 0.218131 2.397429 -2.100537 6.187551 0.665038 -6.357332 -5.479607 -4.379126 -2.290399 -73.585733 -2.906364 -4.103432 -0.749353 -0.722346 -1.845648 -6.336244 -0.041038 -4.191890 -3.954914 1.008325 0.179375 0.033816 -0.425445 -6.570576 3.142239 0.000000 -0.000000 -0.000000 2.912729 -5.195591 -0.455697 0.731935 -0.068824 -0.185305 0.125005 -5.568252 -1.296524 0.000000 0.000000 0.000000
0.141998 0.985459 0.140395 0.494564 10.573647 0.929771 -0.853234 0.947753 -1.325889 -0.274721 -13.068291 -0.633306 -0.191277 -0.123274 -0.484847 -0.078466 9.464244 -0.140255 -0.991303 -0.398355 0.268378 -1.842521 -0.736060 0.503886 -0.545809 -6.650004 10.011998 -1.211778 -4.776122 70.748983 0.148748 -4.151774 0.219404 2.393169 -2.100693 6.186337 0.665765 -6.348247 -5.492261 -4.382415 -2.288804 -73.588341 -2.910044 -4.100994 -0.749684 -0.727202 -1.843985 -6.344623 -0.049475 -4.182204 -3.941235 1.020293 0.181899 0.054353 -0.436753 -6.564945 3.127235 0.000000 -0.000000 0.000000 2.904787 -5.181799 -0.425357 0.743024 -0.076243 -0.198333 0.115602 -5.566816 -1.298627 0.000000 -0.000000 0.000000
0.141800 0.985459 0.140326 0.497695 10.557902 0.919169 -0.852138 0.953439 -1.314608 -0.275327 -13.065620 -0.627793 -0.191658 -0.121407 -0.481079 -0.078388 9.464777 -0.139163 -0.994937 -0.399967 0.265054 -1.849258 -0.739085 0.497756 -0.544583 -6.644348 9.992021 -1.217540 -4.786907 70.752352 0.142418 -4.153434 0.220673 2.388919 -2.100845 6.185129 0.666500 -6.339185 -5.504893 -4.385699 -2.287204 -73.590946 -2.913739 -4.098573 -0.750010 -0.732071 -1.842335 -6.352907 -0.057899 -4.172540 -3.927589 1.032227 0.184404 0.074806 -0.448005 -6.559325 3.112278 -0.000000 0.000000 0.000000 2.896870 -5.168039 -0.395117 0.754084 -0.083636 -0.211312 0.106247 -5.565375 -1.300742 -0.000000 0.000000 0.000000
